<svg width="16" height="16" viewBox="0 0 16 16" fill="none" xmlns="http://www.w3.org/2000/svg">
<path fill-rule="evenodd" clip-rule="evenodd" d="M14.1363 15.5H8.68183V9.3235H14.1363V15.5ZM1.86363 15.5V9.3235H7.31817V15.5H1.86363ZM15.5 8H8.68183V4.91177H15.5V8ZM0.5 4.91177H7.31817V8H0.5V4.91177ZM10.2727 3.58823H8.68183V2.81617C8.68183 1.96338 9.39408 0.5 10.2727 0.5C11.1513 0.5 11.8637 1.19133 11.8637 2.04412C11.8637 2.89691 11.1513 3.58823 10.2727 3.58823ZM6.125 3.58823C5.24637 3.58823 4.13637 2.89691 4.13637 2.04412C4.13637 1.19133 4.84863 0.5 5.72728 0.5C6.60592 0.5 7.31817 1.96338 7.31817 2.81617V3.58823H6.125Z" fill="#A48754"/>
</svg>
