<svg width="18" height="19" viewBox="0 0 18 19" fill="none" xmlns="http://www.w3.org/2000/svg">
<path d="M13.0587 5.76665V7.07437C13.0587 8.51883 10.4963 8.84597 9.00311 8.84597C7.5099 8.84597 4.94755 8.32886 4.94755 6.88439V5.57667M3.49533 1.00299L14.4394 1C15.1437 0.999808 15.7301 1.52274 15.7872 2.20181L16.9955 16.5864C17.056 17.3062 16.5017 17.9372 15.7576 17.9957C15.7211 17.9986 15.6846 18 15.6481 18H2.35185C1.60525 18 1 17.4145 1 16.6923C1 16.6588 1.00133 16.6253 1.00398 16.592L2.14784 2.21039C2.20202 1.52922 2.78909 1.00318 3.49533 1.00299V1.00299Z" stroke="#1D1E20" stroke-linecap="round" stroke-linejoin="round"/>
</svg>
