<svg width="14" height="13" viewBox="0 0 14 13" fill="none" xmlns="http://www.w3.org/2000/svg">
<path d="M2.8 5.61835V0.464287C2.8 0.207996 2.59094 0 2.33333 0C2.07573 0 1.86667 0.208019 1.86667 0.464287V5.61832C0.801729 5.83331 0 6.7698 0 7.89289C0 9.01599 0.801729 9.95246 1.86667 10.1674V12.5358C1.86667 12.792 2.07573 13 2.33333 13C2.59094 13 2.8 12.792 2.8 12.5358V10.1674C3.86494 9.95248 4.66667 9.01601 4.66667 7.89292C4.66667 6.76982 3.86494 5.83331 2.8 5.61835ZM2.33333 9.28573C1.56006 9.28573 0.933333 8.66222 0.933333 7.89289C0.933333 7.12357 1.56006 6.50001 2.33333 6.50001C3.1066 6.50001 3.73333 7.12357 3.73333 7.89289C3.73333 8.66222 3.1066 9.28573 2.33333 9.28573ZM7.46667 0.97548V0.464287C7.46667 0.207996 7.25758 0 7 0C6.74242 0 6.53333 0.207996 6.53333 0.464287V0.975457C5.4684 1.19042 4.66667 2.12689 4.66667 3.25001C4.66667 4.37312 5.4684 5.30957 6.53333 5.52453V12.5357C6.53333 12.792 6.7424 13 7 13C7.2576 13 7.46667 12.792 7.46667 12.5357V5.52456C8.5316 5.3096 9.33333 4.37312 9.33333 3.25003C9.33333 2.12693 8.5316 1.19044 7.46667 0.97548ZM7 4.64287C6.22673 4.64287 5.6 4.01933 5.6 3.25001C5.6 2.48068 6.22673 1.85715 7 1.85715C7.77327 1.85715 8.4 2.48068 8.4 3.25001C8.4 4.01933 7.77327 4.64287 7 4.64287ZM12.1333 7.47549V0.464287C12.1333 0.207996 11.9242 0 11.6667 0C11.4091 0 11.2 0.207996 11.2 0.464287V7.47549C10.1351 7.69045 9.33333 8.62692 9.33333 9.75002C9.33333 10.8731 10.1351 11.8096 11.2 12.0245V12.5357C11.2 12.792 11.4091 13 11.6667 13C11.9242 13 12.1333 12.792 12.1333 12.5357V12.0246C13.1983 11.8096 14 10.8731 14 9.75004C14 8.62694 13.1983 7.69047 12.1333 7.47549ZM11.6667 11.1429C10.8934 11.1429 10.2667 10.5194 10.2667 9.75004C10.2667 8.98071 10.8934 8.35716 11.6667 8.35716C12.4399 8.35716 13.0667 8.98071 13.0667 9.75004C13.0667 10.5194 12.4399 11.1429 11.6667 11.1429Z" fill="#A48754"/>
</svg>
