<svg width="35" height="35" viewBox="0 0 35 35" fill="none" xmlns="http://www.w3.org/2000/svg">
<path fill-rule="evenodd" clip-rule="evenodd" d="M17.5 0C7.83504 0 0 7.83504 0 17.5C0 27.165 7.83504 35 17.5 35C27.165 35 35 27.165 35 17.5C35 7.83504 27.165 0 17.5 0ZM13.6524 8.22303C14.6479 8.17775 14.9661 8.16667 17.5009 8.16667H17.498C20.0336 8.16667 20.3505 8.17775 21.3461 8.22303C22.3397 8.26853 23.0183 8.42589 23.6133 8.65667C24.2277 8.89489 24.7469 9.21375 25.2661 9.73292C25.7853 10.2517 26.1042 10.7724 26.3433 11.3863C26.5728 11.9798 26.7303 12.658 26.777 13.6516C26.8217 14.6472 26.8333 14.9653 26.8333 17.5001C26.8333 20.0349 26.8217 20.3522 26.777 21.3478C26.7303 22.341 26.5728 23.0194 26.3433 23.6131C26.1042 24.2268 25.7853 24.7475 25.2661 25.2663C24.7475 25.7854 24.2276 26.1051 23.6139 26.3436C23.02 26.5743 22.341 26.7316 21.3474 26.7771C20.3518 26.8225 20.0347 26.8336 17.4997 26.8336C14.9651 26.8336 14.6472 26.8225 13.6516 26.7771C12.6582 26.7316 11.9798 26.5743 11.3859 26.3436C10.7724 26.1051 10.2517 25.7854 9.73314 25.2663C9.21412 24.7475 8.89525 24.2268 8.65667 23.6129C8.42603 23.0194 8.26875 22.3412 8.22303 21.3476C8.17797 20.3521 8.16667 20.0349 8.16667 17.5001C8.16667 14.9653 8.17833 14.647 8.22289 13.6514C8.26758 12.6582 8.42508 11.9798 8.65645 11.3861C8.89561 10.7724 9.21455 10.2517 9.73372 9.73292C10.2525 9.21397 10.7732 8.89503 11.3871 8.65667C11.9806 8.42589 12.6588 8.26853 13.6524 8.22303Z" fill="#1D1E20"/>
<path fill-rule="evenodd" clip-rule="evenodd" d="M16.6619 9.84852C16.8244 9.84831 16.9993 9.84838 17.188 9.84845L17.4992 9.84852C19.9912 9.84852 20.2866 9.85749 21.2706 9.90219C22.1806 9.94383 22.6745 10.0959 23.0035 10.2236C23.4391 10.3928 23.7496 10.595 24.0761 10.9217C24.4028 11.2484 24.605 11.5595 24.7746 11.995C24.9023 12.3237 25.0546 12.8175 25.096 13.7275C25.1407 14.7115 25.1504 15.007 25.1504 17.4978C25.1504 19.9888 25.1407 20.2843 25.096 21.2682C25.0544 22.1782 24.9023 22.6721 24.7746 23.0007C24.6054 23.4363 24.4028 23.7464 24.0761 24.0729C23.7494 24.3996 23.4393 24.6018 23.0035 24.771C22.6749 24.8993 22.1806 25.051 21.2706 25.0926C20.2867 25.1373 19.9912 25.147 17.4992 25.147C15.0069 25.147 14.7116 25.1373 13.7276 25.0926C12.8176 25.0506 12.3238 24.8985 11.9945 24.7708C11.559 24.6016 11.2479 24.3993 10.9212 24.0727C10.5945 23.746 10.3923 23.4357 10.2227 22.9999C10.095 22.6714 9.94274 22.1774 9.90132 21.2674C9.85662 20.2836 9.84766 19.988 9.84766 17.4955C9.84766 15.0031 9.85662 14.7091 9.90132 13.7252C9.94296 12.8152 10.095 12.3213 10.2227 11.9923C10.3919 11.5567 10.5945 11.2457 10.9212 10.919C11.2479 10.5923 11.559 10.3901 11.9945 10.2205C12.3235 10.0922 12.8176 9.94055 13.7276 9.89869C14.5886 9.85983 14.9224 9.84816 16.6619 9.84619V9.84852ZM22.4813 11.3983C21.8629 11.3983 21.3612 11.8994 21.3612 12.5179C21.3612 13.1363 21.8629 13.6379 22.4813 13.6379C23.0996 13.6379 23.6013 13.1363 23.6013 12.5179C23.6013 11.8996 23.0996 11.3979 22.4813 11.3979V11.3983ZM12.7061 17.5C12.7061 14.8531 14.852 12.707 17.4989 12.7069C20.146 12.7069 22.2915 14.853 22.2915 17.5C22.2915 20.1471 20.1461 22.2922 17.4992 22.2922C14.8521 22.2922 12.7061 20.1471 12.7061 17.5Z" fill="#1D1E20"/>
<path d="M17.5018 14.3892C19.2199 14.3892 20.6129 15.782 20.6129 17.5003C20.6129 19.2184 19.2199 20.6114 17.5018 20.6114C15.7835 20.6114 14.3906 19.2184 14.3906 17.5003C14.3906 15.782 15.7835 14.3892 17.5018 14.3892Z" fill="#1D1E20"/>
</svg>
