<svg width="43" height="43" viewBox="0 0 43 43" fill="none" xmlns="http://www.w3.org/2000/svg">
<path fill-rule="evenodd" clip-rule="evenodd" d="M21.4227 0C30.795 0 38.7702 6.0095 41.7391 14.3528C42.0302 15.1113 43.0198 18.2035 42.3212 18.787C41.6227 19.4288 40.2838 20.479 39.5852 20.829C39.2942 20.9457 39.1195 20.8874 38.9449 20.5957C38.7702 20.4206 38.6538 20.3039 38.5374 20.1289C37.1985 18.7286 31.7264 13.1859 31.2025 12.6608C31.61 18.3202 31.3772 24.9132 31.2025 30.5726C33.5893 28.0054 36.4999 24.8548 39.0613 22.4627C39.8181 21.7042 41.3898 20.479 42.2048 20.2456C42.7869 20.0122 43.0198 20.7123 42.9616 21.0624C43.078 22.0543 42.9034 24.038 42.787 24.7965C41.2152 35.0651 32.2504 43 21.5391 43C9.66365 43 0.00026164 33.3148 0.00026164 21.5292C-0.0579516 9.68521 9.60543 0 21.4227 0ZM39.4688 17.27C38.8867 14.2944 37.8388 11.0271 34.8117 7.46811C31.4936 3.61737 27.1858 1.40027 22.8198 0.933514C22.878 0.991859 22.878 0.991859 22.878 0.991859C28.1754 6.0095 33.8803 11.3189 39.4688 17.27ZM21.5973 0.87517C16.7657 0.700136 11.934 2.50882 8.38295 6.41791C4.83194 10.2687 3.02734 15.403 3.02734 20.5957C3.37662 20.1872 3.90053 19.6621 4.71551 18.962C11.7593 12.8358 16.7657 6.82632 21.4809 0.991859C21.5391 0.933514 21.5973 0.87517 21.5973 0.87517ZM3.14377 22.8711C3.60948 27.3636 5.35585 31.8562 8.49937 35.5319C12.1668 39.7327 16.8239 41.8331 21.5391 41.8915C21.3645 41.7748 21.1898 41.6581 21.0734 41.5414C19.3852 39.9661 15.8925 36.4071 12.3415 32.848C11.8757 32.3813 11.0608 31.7978 12.1668 31.0394C12.9236 30.5726 13.4475 29.9891 14.1461 29.464C14.6118 29.114 15.0775 28.9389 15.6596 28.9973C20.0256 29.2307 23.402 29.1723 27.7679 28.9389C28.0008 28.9389 28.2919 28.5889 28.2919 28.3555C28.4665 23.8046 28.4665 19.1954 28.2919 14.5862C28.2919 14.3528 28.059 14.1194 27.8262 14.1194C23.2855 13.9444 19.9674 13.9444 15.4268 14.1194C15.1357 14.1194 14.67 14.3528 14.67 14.7028C14.2625 18.9037 14.2043 23.1045 14.6118 27.3053C14.67 28.0638 14.2043 28.7056 13.5639 29.0556C12.8071 29.5224 12.2832 30.1642 11.4682 30.6309C11.119 30.806 10.3622 30.8643 9.72185 30.2809C7.10226 27.5387 4.36625 24.7965 3.08556 22.9878C3.20198 22.9294 3.14377 22.9294 3.14377 22.8711ZM22.878 41.8331C27.1858 41.5997 31.3772 39.616 34.6371 36.057C37.606 32.848 39.4106 29.5224 39.8181 25.0882C39.8181 24.8548 39.8763 24.4464 39.7599 24.0963C39.7017 23.863 39.5852 23.6879 39.4688 23.5129C35.2192 26.6635 28.5247 35.2402 22.878 41.7164C22.9362 41.7748 22.9362 41.8331 22.878 41.8331ZM30.3293 11.844C27.4769 9.04342 24.6827 6.35957 21.772 3.7924C21.4227 3.44233 21.0152 3.44233 20.5495 3.85075C18.2792 6.59294 15.8924 9.21845 13.4475 11.844C19.0942 11.4355 24.7409 11.4355 30.3293 11.844ZM11.7593 13.6526C9.54721 16.0448 7.68439 17.9118 5.47229 20.3623C5.12301 20.7123 5.23944 20.8874 5.70514 21.4125C7.80082 23.7463 9.78006 25.9634 11.7593 28.1221C11.8175 27.8887 11.7011 27.4803 11.7011 27.0719C11.3518 22.4627 11.3518 18.3202 11.7593 13.6526ZM30.504 31.2727C25.5558 31.4478 20.6077 31.5061 15.7178 31.3894C15.4267 31.3311 15.1357 31.3311 14.9028 31.3894C15.0775 31.6228 15.1357 31.7978 15.3103 31.9729C17.5224 34.2483 19.2688 36.232 21.6556 38.3324C22.1213 38.7992 22.8198 39.0909 23.6348 38.2741C26.138 35.9403 28.2919 33.6065 30.504 31.2727Z" fill="#1D1E20"/>
</svg>
