<svg width="54" height="54" viewBox="0 0 54 54" fill="none" xmlns="http://www.w3.org/2000/svg">
<g filter="url(#filter0_d)">
<circle cx="27" cy="23" r="20" fill="#A48754"/>
</g>
<path fill-rule="evenodd" clip-rule="evenodd" d="M26.9425 7C33.9172 7 39.8523 11.4722 42.0617 17.6811C42.2783 18.2456 43.0147 20.5468 42.4949 20.981C41.975 21.4586 40.9786 22.2402 40.4588 22.5007C40.2422 22.5875 40.1122 22.5441 39.9822 22.327C39.8523 22.1967 39.7656 22.1099 39.679 21.9796C38.6826 20.9376 34.6104 16.8128 34.2205 16.422C34.5237 20.6337 34.3504 25.54 34.2205 29.7517C35.9967 27.8412 38.1627 25.4966 40.0689 23.7164C40.6321 23.152 41.8017 22.2402 42.4082 22.0665C42.8414 21.8928 43.0147 22.4138 42.9714 22.6744C43.0581 23.4125 42.9281 24.8887 42.8415 25.4532C41.6718 33.095 35.0003 39 27.0291 39C18.1916 39 11.0002 31.7924 11.0002 23.0217C10.9569 14.2076 18.1482 7 26.9425 7ZM40.3721 19.8521C39.9389 17.6377 39.1591 15.2062 36.9064 12.5577C34.4371 9.692 31.2313 8.04206 27.9822 7.69471C28.0255 7.73813 28.0255 7.73813 28.0255 7.73813C31.9678 11.4722 36.2133 15.4233 40.3721 19.8521ZM27.0724 7.65129C23.4768 7.52103 19.8811 8.86703 17.2385 11.7761C14.5959 14.6418 13.2529 18.4627 13.2529 22.327C13.5128 22.0231 13.9027 21.6323 14.5092 21.1113C19.7511 16.5522 23.4768 12.0801 26.9858 7.73813C27.0291 7.69471 27.0724 7.65129 27.0724 7.65129ZM13.3396 24.0204C13.6861 27.3636 14.9858 30.7069 17.3251 33.4423C20.0544 36.5685 23.5201 38.1316 27.0291 38.175C26.8992 38.0882 26.7692 38.0014 26.6825 37.9145C25.4262 36.7422 22.8269 34.0936 20.1843 31.445C19.8378 31.0977 19.2313 30.6635 20.0544 30.0991C20.6176 29.7517 21.0074 29.3175 21.5273 28.9267C21.8739 28.6662 22.2204 28.536 22.6537 28.5794C25.9028 28.7531 28.4154 28.7096 31.6645 28.536C31.8378 28.536 32.0544 28.2754 32.0544 28.1018C32.1844 24.7151 32.1844 21.2849 32.0544 17.8548C32.0544 17.6811 31.8811 17.5075 31.7078 17.5075C28.3288 17.3772 25.8595 17.3772 22.4804 17.5075C22.2638 17.5075 21.9172 17.6811 21.9172 17.9417C21.6139 21.0678 21.5706 24.194 21.8739 27.3202C21.9172 27.8847 21.5706 28.3623 21.0941 28.6228C20.5309 28.9701 20.141 29.4478 19.5345 29.7951C19.2746 29.9254 18.7114 29.9688 18.2349 29.5346C16.2854 27.4939 14.2493 25.4532 13.2962 24.1072C13.3829 24.0638 13.3396 24.0638 13.3396 24.0204ZM28.0255 38.1316C31.2313 37.9579 34.3505 36.4817 36.7765 33.8331C38.9858 31.445 40.3288 28.9701 40.6321 25.6703C40.6321 25.4966 40.6754 25.1927 40.5887 24.9322C40.5454 24.7585 40.4588 24.6282 40.3721 24.498C37.2097 26.8426 32.2277 33.2252 28.0255 38.0448C28.0688 38.0882 28.0688 38.1316 28.0255 38.1316ZM33.5707 15.8141C31.4479 13.73 29.3685 11.7327 27.2024 9.82225C26.9425 9.56174 26.6392 9.56174 26.2927 9.86567C24.6031 11.9064 22.8269 13.8602 21.0074 15.8141C25.2096 15.5102 29.4118 15.5102 33.5707 15.8141ZM19.7511 17.1601C18.1049 18.9403 16.7186 20.3297 15.0724 22.1533C14.8125 22.4138 14.8991 22.5441 15.2457 22.9349C16.8053 24.6716 18.2782 26.3216 19.7511 27.9281C19.7944 27.7544 19.7078 27.4505 19.7078 27.1465C19.4479 23.7164 19.4479 20.6336 19.7511 17.1601ZM33.7006 30.2727C30.0183 30.403 26.336 30.4464 22.697 30.3596C22.4804 30.3161 22.2638 30.3161 22.0905 30.3596C22.2204 30.5332 22.2638 30.6635 22.3937 30.7938C24.0399 32.4871 25.3396 33.9634 27.1158 35.5265C27.4623 35.8738 27.9822 36.0909 28.5887 35.483C30.4515 33.7463 32.0544 32.0095 33.7006 30.2727Z" fill="white"/>
<defs>
<filter id="filter0_d" x="0" y="0" width="54" height="54" filterUnits="userSpaceOnUse" color-interpolation-filters="sRGB">
<feFlood flood-opacity="0" result="BackgroundImageFix"/>
<feColorMatrix in="SourceAlpha" type="matrix" values="0 0 0 0 0 0 0 0 0 0 0 0 0 0 0 0 0 0 127 0"/>
<feMorphology radius="2" operator="erode" in="SourceAlpha" result="effect1_dropShadow"/>
<feOffset dy="4"/>
<feGaussianBlur stdDeviation="4.5"/>
<feColorMatrix type="matrix" values="0 0 0 0 0 0 0 0 0 0 0 0 0 0 0 0 0 0 0.15 0"/>
<feBlend mode="normal" in2="BackgroundImageFix" result="effect1_dropShadow"/>
<feBlend mode="normal" in="SourceGraphic" in2="effect1_dropShadow" result="shape"/>
</filter>
</defs>
</svg>
