<svg width="20" height="20" viewBox="0 0 20 20" fill="none" xmlns="http://www.w3.org/2000/svg">
<g opacity="0.4">
<path d="M5.38095 15.7708H3.24807C2.0065 15.7708 1 14.7643 1 13.5227V9.02654C1 7.78497 2.0065 6.77847 3.24807 6.77847H16.7519C17.9935 6.77847 19 7.78497 19 9.02654V13.5227C19 14.7643 17.9935 15.7708 16.7519 15.7708H14.5039" stroke="#1D1E20" stroke-linecap="round" stroke-linejoin="round"/>
<path d="M5.51172 5.09239V2.2823C5.51172 1.66151 6.01497 1.15826 6.63575 1.15826H13.38C14.0007 1.15826 14.504 1.66151 14.504 2.2823V5.09239M5.51172 18.0188V12.3971H14.504V18.0188C14.504 18.6396 14.0007 19.1428 13.38 19.1428H6.63575C6.01497 19.1428 5.51172 18.6396 5.51172 18.0188Z" stroke="#1D1E20" stroke-linecap="round" stroke-linejoin="round"/>
<path d="M17.3145 9.58861C17.3145 8.96782 16.8112 8.46458 16.1904 8.46458C15.5697 8.46458 15.0664 8.96782 15.0664 9.58861C15.0664 10.2094 15.5697 10.7126 16.1904 10.7126C16.8112 10.7126 17.3145 10.2094 17.3145 9.58861Z" fill="#1D1E20"/>
</g>
</svg>
