<svg width="18" height="18" viewBox="0 0 18 18" fill="none" xmlns="http://www.w3.org/2000/svg">
<g opacity="0.3">
<path fill-rule="evenodd" clip-rule="evenodd" d="M10.6935 1H14.742C15.989 1 17 2.01096 17 3.25804V7.30647C17 7.6059 16.8811 7.89307 16.6693 8.10481L8.43549 16.3386C7.55367 17.2205 6.12396 17.2205 5.24214 16.3386L1.66137 12.7579C0.779545 11.876 0.779545 10.4463 1.66137 9.56451L9.89519 1.33068C10.1069 1.11895 10.3941 1 10.6935 1V1Z" stroke="#A48754" stroke-linecap="round" stroke-linejoin="round"/>
<path d="M15.3049 3.82238C15.3049 3.19884 14.7994 2.69336 14.1759 2.69336C13.5524 2.69336 13.0469 3.19884 13.0469 3.82238C13.0469 4.44592 13.5524 4.9514 14.1759 4.9514C14.7994 4.9514 15.3049 4.44592 15.3049 3.82238Z" fill="#A48754"/>
</g>
</svg>
